<svg width="219" height="61" viewBox="0 0 219 61" fill="none" xmlns="http://www.w3.org/2000/svg">
<path d="M2.83204 47.7057L27.6149 47.9318L27.6793 42.018L2.8964 41.7918L2.83204 47.7057ZM22.5179 13.6505L23.6615 14.3894C26.3419 10.1141 28.763 11.2964 28.763 11.2964L26.9201 16.504L29.8439 18.4036L30.0456 21.6584L35.2507 32.4258L31.6215 35.2878C31.6215 35.2878 29.445 31.6809 28.3929 30.9546C27.5187 30.3552 24.9987 29.9133 23.7656 29.7295L18.2686 22.098L17.266 23.1298L20.2895 27.3281C20.2786 27.3457 20.2685 27.3644 20.2575 27.384C17.2394 33.0905 22.0442 37.8186 25.7741 40.4244L4.84083 40.2334C5.91163 9.10162 22.5179 13.6505 22.5179 13.6505Z" fill="#2B1D0A"/>
<path d="M64.528 48.7547C61.936 48.7547 59.664 48.2427 57.712 47.2187C55.776 46.1787 54.264 44.7067 53.176 42.8027C52.104 40.8987 51.568 38.6427 51.568 36.0347C51.568 32.7547 52.12 29.6587 53.224 26.7467C54.344 23.8187 55.88 21.2347 57.832 18.9947C59.8 16.7547 62.056 14.9947 64.6 13.7147C67.144 12.4347 69.856 11.7947 72.736 11.7947C74.72 11.7947 76.456 12.2187 77.944 13.0667C79.432 13.8987 80.576 15.1147 81.376 16.7147C82.192 18.3147 82.568 20.2587 82.504 22.5467H82.36C82.408 20.7707 82.192 19.2347 81.712 17.9387C81.248 16.6267 80.608 15.5467 79.792 14.6987C78.976 13.8347 78.032 13.1947 76.96 12.7787C75.904 12.3627 74.8 12.1547 73.648 12.1547C72 12.1547 70.48 12.5787 69.088 13.4267C67.712 14.2587 66.456 15.4027 65.32 16.8587C64.2 18.2987 63.208 19.9387 62.344 21.7787C61.48 23.6027 60.76 25.5307 60.184 27.5627C59.608 29.5947 59.168 31.6107 58.864 33.6107C58.576 35.5947 58.432 37.4587 58.432 39.2027C58.432 40.7867 58.648 42.2827 59.08 43.6907C59.528 45.0987 60.256 46.2427 61.264 47.1227C62.272 47.9867 63.608 48.4187 65.272 48.4187C67.272 48.4187 69.168 47.9627 70.96 47.0507C72.752 46.1387 74.352 44.8987 75.76 43.3307C77.184 41.7467 78.336 39.9707 79.216 38.0027H79.36C78.528 39.9707 77.384 41.7707 75.928 43.4027C74.488 45.0347 72.8 46.3387 70.864 47.3147C68.928 48.2747 66.816 48.7547 64.528 48.7547ZM76.6 48.2747L74.2 45.0107C74.92 44.3387 75.632 43.6027 76.336 42.8027C77.04 42.0027 77.752 40.9547 78.472 39.6587L79.216 38.0027H79.408L76.768 48.2747H76.6ZM82.36 22.5467L82.384 21.2267C82.272 20.0587 82.088 19.0187 81.832 18.1067C81.592 17.1947 81.192 16.3627 80.632 15.6107L84.76 12.2747H84.928L82.552 22.5467H82.36ZM82.2696 48.2747L91.8696 12.4427H88.0536V12.2747H97.2696L87.6696 48.2747H82.2696ZM100.054 48.7547C98.8536 48.7547 97.8936 48.4507 97.1736 47.8427C96.4696 47.2187 96.1176 46.3947 96.1176 45.3707C96.1176 45.0827 96.1576 44.7547 96.2376 44.3867C96.3176 44.0027 96.4136 43.6107 96.5256 43.2107L99.4296 33.2267C99.8136 31.8827 100.078 30.7387 100.222 29.7947C100.366 28.8347 100.334 28.1147 100.126 27.6347C99.9176 27.1387 99.4776 26.8907 98.8056 26.8907C98.1496 26.8907 97.3896 27.2907 96.5256 28.0907C95.6776 28.8907 94.8056 29.9947 93.9096 31.4027C93.0136 32.7947 92.1656 34.3947 91.3656 36.2027C90.5656 37.9947 89.9016 39.8907 89.3736 41.8907H89.2536C89.5896 40.5947 90.0376 39.2107 90.5976 37.7387C91.1736 36.2667 91.8296 34.8267 92.5656 33.4187C93.3176 31.9947 94.1336 30.7067 95.0136 29.5547C95.8936 28.3867 96.8216 27.4587 97.7976 26.7707C98.7736 26.0827 99.7816 25.7387 100.822 25.7387C102.166 25.7387 103.198 26.0667 103.918 26.7227C104.638 27.3627 105.07 28.2267 105.214 29.3147C105.358 30.3867 105.238 31.5947 104.854 32.9387L101.062 46.2347C101.03 46.3467 100.998 46.4907 100.966 46.6667C100.934 46.8267 100.918 46.9707 100.918 47.0987C100.918 47.6907 101.198 47.9867 101.758 47.9867C102.862 47.9867 103.926 47.4027 104.95 46.2347C105.974 45.0667 106.982 43.2267 107.974 40.7147L108.118 40.7627C107.382 42.6667 106.614 44.2027 105.814 45.3707C105.03 46.5387 104.166 47.3947 103.222 47.9387C102.294 48.4827 101.238 48.7547 100.054 48.7547ZM118.041 48.7547C116.393 48.7547 115.009 48.4267 113.889 47.7707C112.769 47.0987 111.921 46.1867 111.345 45.0347C110.785 43.8667 110.505 42.5467 110.505 41.0747C110.505 39.1547 110.857 37.2827 111.561 35.4587C112.281 33.6347 113.273 31.9867 114.537 30.5147C115.817 29.0427 117.297 27.8747 118.977 27.0107C120.673 26.1467 122.505 25.7147 124.473 25.7147C126.521 25.7147 128.113 26.1867 129.249 27.1307C130.385 28.0587 130.953 29.2107 130.953 30.5867C130.953 31.8027 130.553 32.8987 129.753 33.8747C128.969 34.8347 127.873 35.6587 126.465 36.3467C125.057 37.0187 123.425 37.5547 121.569 37.9547C119.729 38.3547 117.753 38.6187 115.641 38.7467V38.6027C116.921 38.5227 118.113 38.2747 119.217 37.8587C120.337 37.4427 121.337 36.9067 122.217 36.2507C123.097 35.5787 123.849 34.8267 124.473 33.9947C125.113 33.1467 125.601 32.2427 125.937 31.2827C126.273 30.3227 126.441 29.3547 126.441 28.3787C126.441 27.7547 126.321 27.1867 126.081 26.6747C125.857 26.1627 125.417 25.9067 124.761 25.9067C123.961 25.9067 123.177 26.2107 122.409 26.8187C121.641 27.4267 120.905 28.2507 120.201 29.2907C119.513 30.3307 118.873 31.4987 118.281 32.7947C117.705 34.0747 117.201 35.4107 116.769 36.8027C116.353 38.1787 116.025 39.5227 115.785 40.8347C115.561 42.1307 115.449 43.2987 115.449 44.3387C115.449 45.9227 115.753 47.0107 116.361 47.6027C116.969 48.1787 117.761 48.4667 118.737 48.4667C120.049 48.4667 121.289 48.1947 122.457 47.6507C123.641 47.1067 124.745 46.3547 125.769 45.3947C126.793 44.4187 127.705 43.2907 128.505 42.0107L128.649 42.0827C127.961 43.2347 127.113 44.3227 126.105 45.3467C125.097 46.3547 123.921 47.1787 122.577 47.8187C121.249 48.4427 119.737 48.7547 118.041 48.7547ZM141.321 48.7547C139.769 48.7547 138.345 48.5307 137.049 48.0827C135.769 47.6187 134.737 46.9627 133.953 46.1147C133.185 45.2667 132.801 44.2507 132.801 43.0667C132.801 42.2027 133.073 41.4587 133.617 40.8347C134.177 40.2107 134.921 39.8987 135.849 39.8987C136.697 39.8987 137.385 40.1707 137.913 40.7147C138.457 41.2587 138.729 41.9787 138.729 42.8747C138.729 43.7867 138.433 44.4827 137.841 44.9627C137.265 45.4267 136.585 45.6587 135.801 45.6587C135.273 45.6587 134.777 45.5627 134.313 45.3707C133.865 45.1627 133.505 44.8667 133.233 44.4827C132.977 44.0987 132.849 43.6267 132.849 43.0667H133.017C133.017 44.2507 133.393 45.2507 134.145 46.0667C134.913 46.8827 135.905 47.5067 137.121 47.9387C138.353 48.3547 139.649 48.5627 141.009 48.5627C141.889 48.5627 142.761 48.3947 143.625 48.0587C144.505 47.7067 145.241 47.2027 145.833 46.5467C146.425 45.8907 146.721 45.0987 146.721 44.1707C146.721 43.3067 146.457 42.5387 145.929 41.8667C145.417 41.1947 144.745 40.5787 143.913 40.0187C143.097 39.4587 142.225 38.9147 141.297 38.3867C140.369 37.8427 139.489 37.2747 138.657 36.6827C137.841 36.0747 137.169 35.4027 136.641 34.6667C136.129 33.9147 135.873 33.0507 135.873 32.0747C135.873 30.8587 136.233 29.7707 136.953 28.8107C137.689 27.8507 138.713 27.0907 140.025 26.5307C141.337 25.9707 142.857 25.6907 144.585 25.6907C146.233 25.6907 147.593 25.9307 148.665 26.4107C149.737 26.8747 150.537 27.4667 151.065 28.1867C151.593 28.8907 151.857 29.6027 151.857 30.3227C151.857 31.2827 151.577 32.0107 151.017 32.5067C150.457 32.9867 149.825 33.2267 149.121 33.2267C148.353 33.2267 147.665 32.9787 147.057 32.4827C146.449 31.9867 146.145 31.2747 146.145 30.3467C146.145 29.5947 146.409 28.9627 146.937 28.4507C147.465 27.9227 148.145 27.6587 148.977 27.6587C149.809 27.6587 150.489 27.9067 151.017 28.4027C151.545 28.8987 151.809 29.5387 151.809 30.3227H151.665C151.665 29.5867 151.401 28.8827 150.873 28.2107C150.345 27.5227 149.577 26.9707 148.569 26.5547C147.577 26.1227 146.369 25.9067 144.945 25.9067C144.113 25.9067 143.297 26.0587 142.497 26.3627C141.697 26.6667 141.041 27.1067 140.529 27.6827C140.017 28.2427 139.761 28.9307 139.761 29.7467C139.761 30.5467 140.025 31.2587 140.553 31.8827C141.081 32.4907 141.753 33.0587 142.569 33.5867C143.401 34.1147 144.281 34.6427 145.209 35.1707C146.137 35.6987 147.017 36.2747 147.849 36.8987C148.681 37.5227 149.353 38.2427 149.865 39.0587C150.393 39.8587 150.657 40.8187 150.657 41.9387C150.657 43.3467 150.225 44.5627 149.361 45.5867C148.513 46.5947 147.377 47.3787 145.953 47.9387C144.545 48.4827 143.001 48.7547 141.321 48.7547ZM159.712 48.7547C158.576 48.7547 157.664 48.5947 156.976 48.2747C156.304 47.9387 155.816 47.5067 155.512 46.9787C155.208 46.4507 155.056 45.9067 155.056 45.3467C155.056 45.0107 155.104 44.5947 155.2 44.0987C155.312 43.6027 155.432 43.1147 155.56 42.6347L161.248 21.3947H166.528L159.736 46.3547C159.688 46.5147 159.64 46.7067 159.592 46.9307C159.544 47.1387 159.52 47.3547 159.52 47.5787C159.52 48.1067 159.912 48.3707 160.696 48.3707C161.336 48.3707 161.984 48.2267 162.64 47.9387C163.312 47.6507 163.968 47.2027 164.608 46.5947C165.264 45.9707 165.912 45.1547 166.552 44.1467C167.192 43.1227 167.8 41.8747 168.376 40.4027L168.544 40.4507C167.808 42.2587 167.016 43.7867 166.168 45.0347C165.336 46.2667 164.392 47.1947 163.336 47.8187C162.296 48.4427 161.088 48.7547 159.712 48.7547ZM155.2 26.3627V26.1947H169.6V26.3627H155.2ZM169.86 48.2747L175.404 26.3627H171.564V26.1947H180.444L175.092 48.2747H169.86ZM176.796 40.6187C177.084 39.4507 177.42 38.1947 177.804 36.8507C178.204 35.5067 178.66 34.1787 179.172 32.8667C179.7 31.5547 180.3 30.3627 180.972 29.2907C181.66 28.2187 182.42 27.3627 183.252 26.7227C184.084 26.0667 185.012 25.7387 186.036 25.7387C187.22 25.7387 188.172 26.0827 188.892 26.7707C189.628 27.4427 189.996 28.2827 189.996 29.2907C189.996 30.2507 189.708 31.0667 189.132 31.7387C188.556 32.4107 187.78 32.7467 186.804 32.7467C185.876 32.7467 185.108 32.4427 184.5 31.8347C183.892 31.2267 183.588 30.4667 183.588 29.5547C183.588 28.6907 183.884 27.9867 184.476 27.4427C185.068 26.8987 185.852 26.6267 186.828 26.6267C187.676 26.6267 188.404 26.8667 189.012 27.3467C189.636 27.8267 189.948 28.4747 189.948 29.2907H189.828C189.828 28.3307 189.484 27.5307 188.796 26.8907C188.108 26.2347 187.188 25.9067 186.036 25.9067C185.044 25.9067 184.132 26.2347 183.299 26.8907C182.484 27.5307 181.74 28.3867 181.068 29.4587C180.412 30.5147 179.828 31.6907 179.316 32.9867C178.804 34.2827 178.348 35.5947 177.948 36.9227C177.548 38.2507 177.212 39.4827 176.94 40.6187H176.796ZM194.627 60.7547C193.459 60.7547 192.443 60.4987 191.579 59.9867C190.731 59.4907 190.075 58.8027 189.611 57.9227C189.131 57.0587 188.891 56.0747 188.891 54.9707C188.891 54.3467 189.043 53.7467 189.347 53.1707C189.635 52.5947 190.043 52.1227 190.571 51.7547C191.099 51.4027 191.715 51.2267 192.419 51.2267C192.915 51.2267 193.411 51.3387 193.907 51.5627C194.419 51.8027 194.843 52.1547 195.179 52.6187C195.515 53.0827 195.683 53.6667 195.683 54.3707C195.683 55.2987 195.379 56.0667 194.771 56.6747C194.163 57.2827 193.443 57.5867 192.611 57.5867C192.051 57.5867 191.491 57.4827 190.931 57.2747C190.355 57.0667 189.883 56.7627 189.515 56.3627C189.131 55.9787 188.939 55.5147 188.939 54.9707H189.059C189.059 56.0427 189.291 57.0027 189.755 57.8507C190.219 58.6987 190.867 59.3627 191.699 59.8427C192.531 60.3387 193.507 60.5867 194.627 60.5867C195.955 60.5867 197.371 60.1547 198.875 59.2907C200.379 58.4267 201.899 57.2587 203.435 55.7867C204.987 54.3147 206.499 52.6587 207.971 50.8187C209.443 48.9787 210.819 47.0747 212.099 45.1067C213.379 43.1387 214.507 41.2347 215.483 39.3947C216.459 37.5387 217.219 35.8587 217.763 34.3547C218.323 32.8507 218.603 31.6587 218.603 30.7787C218.603 30.0907 218.467 29.3707 218.195 28.6187C217.923 27.8667 217.483 27.2267 216.875 26.6987C216.283 26.1707 215.491 25.9067 214.499 25.9067V25.7867C215.235 25.7867 215.883 25.9467 216.443 26.2667C217.003 26.5867 217.435 27.0027 217.739 27.5147C218.059 28.0267 218.219 28.5547 218.219 29.0987C218.219 29.7227 218.051 30.2827 217.715 30.7787C217.379 31.2747 216.939 31.6587 216.395 31.9307C215.851 32.2027 215.259 32.3387 214.619 32.3387C213.515 32.3387 212.627 32.0187 211.955 31.3787C211.283 30.7387 210.947 29.9547 210.947 29.0267C210.947 28.1147 211.283 27.3387 211.955 26.6987C212.627 26.0587 213.475 25.7387 214.499 25.7387C215.555 25.7387 216.395 26.0107 217.019 26.5547C217.643 27.0987 218.091 27.7627 218.363 28.5467C218.651 29.3307 218.795 30.0747 218.795 30.7787C218.795 31.6747 218.515 32.8827 217.955 34.4027C217.411 35.9067 216.651 37.5867 215.675 39.4427C214.699 41.2987 213.563 43.2107 212.267 45.1787C210.987 47.1467 209.603 49.0587 208.115 50.9147C206.643 52.7707 205.131 54.4347 203.579 55.9067C202.027 57.3947 200.483 58.5707 198.947 59.4347C197.427 60.3147 195.987 60.7547 194.627 60.7547ZM206.771 52.1867C206.195 51.1787 205.611 49.9627 205.019 48.5387C204.427 47.1307 203.843 45.6187 203.267 44.0027C202.691 42.3707 202.139 40.7387 201.611 39.1067C201.083 37.4587 200.595 35.8987 200.147 34.4267C199.715 32.9387 199.323 31.6267 198.971 30.4907C198.619 29.3547 198.331 28.4987 198.107 27.9227C198.011 27.6667 197.851 27.4027 197.627 27.1307C197.419 26.8427 197.043 26.6987 196.499 26.6987C195.955 26.6987 195.275 27.0427 194.459 27.7307C193.643 28.4187 192.875 29.7467 192.155 31.7147L192.011 31.6427C192.539 30.2027 193.147 29.0507 193.835 28.1867C194.539 27.3227 195.331 26.6987 196.211 26.3147C197.091 25.9307 198.051 25.7387 199.091 25.7387C200.739 25.7387 201.947 26.1467 202.715 26.9627C203.483 27.7627 204.051 28.7947 204.419 30.0587C204.739 31.1307 205.099 32.4107 205.499 33.8987C205.915 35.3867 206.379 36.9467 206.891 38.5787C207.403 40.1947 207.971 41.7627 208.595 43.2827C209.235 44.8027 209.947 46.1387 210.731 47.2907C210.411 47.7387 210.107 48.1547 209.819 48.5387C209.531 48.9227 209.235 49.2987 208.931 49.6667C208.627 50.0347 208.299 50.4187 207.947 50.8187C207.611 51.2347 207.219 51.6907 206.771 52.1867Z" fill="#2B1D0A"/>
</svg>
