<svg width="64" height="64" viewBox="0 0 64 64" fill="none" xmlns="http://www.w3.org/2000/svg">
<path fill-rule="evenodd" clip-rule="evenodd" d="M31.9998 8.6665C32.5303 8.6665 33.039 8.87722 33.4141 9.25229C33.7891 9.62736 33.9998 10.1361 33.9998 10.6665V29.9998H53.3332C53.8636 29.9998 54.3723 30.2106 54.7474 30.5856C55.1225 30.9607 55.3332 31.4694 55.3332 31.9998C55.3332 32.5303 55.1225 33.039 54.7474 33.4141C54.3723 33.7891 53.8636 33.9998 53.3332 33.9998H33.9998V53.3332C33.9998 53.8636 33.7891 54.3723 33.4141 54.7474C33.039 55.1225 32.5303 55.3332 31.9998 55.3332C31.4694 55.3332 30.9607 55.1225 30.5856 54.7474C30.2106 54.3723 29.9998 53.8636 29.9998 53.3332V33.9998H10.6665C10.1361 33.9998 9.62736 33.7891 9.25229 33.4141C8.87722 33.039 8.6665 32.5303 8.6665 31.9998C8.6665 31.4694 8.87722 30.9607 9.25229 30.5856C9.62736 30.2106 10.1361 29.9998 10.6665 29.9998H29.9998V10.6665C29.9998 10.1361 30.2106 9.62736 30.5856 9.25229C30.9607 8.87722 31.4694 8.6665 31.9998 8.6665Z" fill="#2B1D0A"/>
</svg>
