<svg width="1920" height="1440" viewBox="0 0 1920 1440" fill="none" xmlns="http://www.w3.org/2000/svg">
<g clip-path="url(#clip0_11_88)">
<path d="M60.5 59.5H119.5V0H120.5V59.5H179.5V0H180.5V59.5H239.5V0H240.5V59.5H299.5V0H300.5V59.5H359.5V0H360.5V59.5H419.5V0H420.5V59.5H479.5V0H480.5V59.5H539.5V0H540.5V59.5H599.5V0H600.5V59.5H659.5V0H660.5V59.5H719.5V0H720.5V59.5H779.5V0H780.5V59.5H839.5V0H840.5V59.5H899.5V0H900.5V59.5H959.5V0H960.5V59.5H1019.5V0H1020.5V59.5H1079.5V0H1080.5V59.5H1139.5V0H1140.5V59.5H1199.5V0H1200.5V59.5H1259.5V0H1260.5V59.5H1319.5V0H1320.5V59.5H1379.5V0H1380.5V59.5H1439.5V0H1440.5V59.5H1499.5V0H1500.5V59.5H1559.5V0H1560.5V59.5H1619.5V0H1620.5V59.5H1679.5V0H1680.5V59.5H1739.5V0H1740.5V59.5H1799.5V0H1800.5V59.5H1859.5V0H1860.5V59.5H1920V60.5H1860.5V119.5H1920V120.5H1860.5V179.5H1920V180.5H1860.5V239.5H1920V240.5H1860.5V299.5H1920V300.5H1860.5V359.5H1920V360.5H1860.5V419.5H1920V420.5H1860.5V479.5H1920V480.5H1860.5V539.5H1920V540.5H1860.5V599.5H1920V600.5H1860.5V659.5H1920V660.5H1860.5V719.5H1920V720.5H1860.5V779.5H1920V780.5H1860.5V839.5H1920V840.5H1860.5V899.5H1920V900.5H1860.5V959.5H1920V960.5H1860.5V1019.5H1920V1020.5H1860.5V1079.5H1920V1080.5H1860.5V1139.5H1920V1140.5H1860.5V1199.5H1920V1200.5H1860.5V1259.5H1920V1260.5H1860.5V1319.5H1920V1320.5H1860.5V1379.5H1920V1380.5H1860.5V1440H1859.5V1380.5H1800.5V1440H1799.5V1380.5H1740.5V1440H1739.5V1380.5H1680.5V1440H1679.5V1380.5H1620.5V1440H1619.5V1380.5H1560.5V1440H1559.5V1380.5H1500.5V1440H1499.5V1380.5H1440.5V1440H1439.5V1380.5H1380.5V1440H1379.5V1380.5H1320.5V1440H1319.5V1380.5H1260.5V1440H1259.5V1380.5H1200.5V1440H1199.5V1380.5H1140.5V1440H1139.5V1380.5H1080.5V1440H1079.5V1380.5H1020.5V1440H1019.5V1380.5H960.5V1440H959.5V1380.5H900.5V1440H899.5V1380.5H840.5V1440H839.5V1380.5H780.5V1440H779.5V1380.5H720.5V1440H719.5V1380.5H660.5V1440H659.5V1380.5H600.5V1440H599.5V1380.5H540.5V1440H539.5V1380.5H480.5V1440H479.5V1380.5H420.5V1440H419.5V1380.5H360.5V1440H359.5V1380.5H300.5V1440H299.5V1380.5H240.5V1440H239.5V1380.5H180.5V1440H179.5V1380.5H120.5V1440H119.5V1380.5H60.5V1440H59.5V1380.5H0V1379.5H59.5V1320.5H0V1319.5H59.5V1260.5H0V1259.5H59.5V1200.5H0V1199.5H59.5V1140.5H0V1139.5H59.5V1080.5H0V1079.5H59.5V1020.5H0V1019.5H59.5V960.5H0V959.5H59.5V900.5H0V899.5H59.5V840.5H0V839.5H59.5V780.5H0V779.5H59.5V720.5H0V719.5H59.5V660.5H0V659.5H59.5V600.5H0V599.5H59.5V540.5H0V539.5H59.5V480.5H0V479.5H59.5V420.5H0V419.5H59.5V360.5H0V359.5H59.5V300.5H0V299.5H59.5V240.5H0V239.5H59.5V180.5H0V179.5H59.5V120.5H0V119.5H59.5V60.5H0V59.5H59.5V0H60.5V59.5ZM60.5 1379.5H119.5V1320.5H60.5V1379.5ZM120.5 1379.5H179.5V1320.5H120.5V1379.5ZM180.5 1379.5H239.5V1320.5H180.5V1379.5ZM240.5 1379.5H299.5V1320.5H240.5V1379.5ZM300.5 1379.5H359.5V1320.5H300.5V1379.5ZM360.5 1379.5H419.5V1320.5H360.5V1379.5ZM420.5 1379.5H479.5V1320.5H420.5V1379.5ZM480.5 1379.5H539.5V1320.5H480.5V1379.5ZM540.5 1379.5H599.5V1320.5H540.5V1379.5ZM600.5 1379.5H659.5V1320.5H600.5V1379.5ZM660.5 1379.5H719.5V1320.5H660.5V1379.5ZM720.5 1379.5H779.5V1320.5H720.5V1379.5ZM780.5 1379.5H839.5V1320.5H780.5V1379.5ZM840.5 1379.5H899.5V1320.5H840.5V1379.5ZM900.5 1379.5H959.5V1320.5H900.5V1379.5ZM960.5 1379.5H1019.5V1320.5H960.5V1379.5ZM1020.5 1379.5H1079.5V1320.5H1020.5V1379.5ZM1080.5 1379.5H1139.5V1320.5H1080.5V1379.5ZM1140.5 1379.5H1199.5V1320.5H1140.5V1379.5ZM1200.5 1379.5H1259.5V1320.5H1200.5V1379.5ZM1260.5 1379.5H1319.5V1320.5H1260.5V1379.5ZM1320.5 1379.5H1379.5V1320.5H1320.5V1379.5ZM1380.5 1379.5H1439.5V1320.5H1380.5V1379.5ZM1440.5 1379.5H1499.5V1320.5H1440.5V1379.5ZM1500.5 1379.5H1559.5V1320.5H1500.5V1379.5ZM1560.5 1379.5H1619.5V1320.5H1560.5V1379.5ZM1620.5 1379.5H1679.5V1320.5H1620.5V1379.5ZM1680.5 1379.5H1739.5V1320.5H1680.5V1379.5ZM1740.5 1379.5H1799.5V1320.5H1740.5V1379.5ZM1800.5 1379.5H1859.5V1320.5H1800.5V1379.5ZM60.5 1319.5H119.5V1260.5H60.5V1319.5ZM120.5 1319.5H179.5V1260.5H120.5V1319.5ZM180.5 1319.5H239.5V1260.5H180.5V1319.5ZM240.5 1319.5H299.5V1260.5H240.5V1319.5ZM300.5 1319.5H359.5V1260.5H300.5V1319.5ZM360.5 1319.5H419.5V1260.5H360.5V1319.5ZM420.5 1319.5H479.5V1260.5H420.5V1319.5ZM480.5 1319.5H539.5V1260.5H480.5V1319.5ZM540.5 1319.5H599.5V1260.5H540.5V1319.5ZM600.5 1319.5H659.5V1260.5H600.5V1319.5ZM660.5 1319.5H719.5V1260.5H660.5V1319.5ZM720.5 1319.5H779.5V1260.5H720.5V1319.5ZM780.5 1319.5H839.5V1260.5H780.5V1319.5ZM840.5 1319.5H899.5V1260.5H840.5V1319.5ZM900.5 1319.5H959.5V1260.5H900.5V1319.5ZM960.5 1319.5H1019.5V1260.5H960.5V1319.5ZM1020.5 1319.5H1079.5V1260.5H1020.5V1319.5ZM1080.5 1319.5H1139.5V1260.5H1080.5V1319.5ZM1140.5 1319.5H1199.5V1260.5H1140.5V1319.5ZM1200.5 1319.5H1259.5V1260.5H1200.5V1319.5ZM1260.5 1319.5H1319.5V1260.5H1260.5V1319.5ZM1320.5 1319.5H1379.5V1260.5H1320.5V1319.5ZM1380.5 1319.5H1439.5V1260.5H1380.5V1319.5ZM1440.5 1319.5H1499.5V1260.5H1440.5V1319.5ZM1500.5 1319.5H1559.5V1260.5H1500.5V1319.5ZM1560.5 1319.5H1619.5V1260.5H1560.5V1319.5ZM1620.5 1319.5H1679.5V1260.5H1620.5V1319.5ZM1680.5 1319.5H1739.5V1260.5H1680.5V1319.5ZM1740.5 1319.5H1799.5V1260.5H1740.5V1319.5ZM1800.5 1319.5H1859.5V1260.5H1800.5V1319.5ZM60.5 1259.5H119.5V1200.5H60.5V1259.5ZM120.5 1259.5H179.5V1200.5H120.5V1259.5ZM180.5 1259.5H239.5V1200.5H180.5V1259.5ZM240.5 1259.5H299.5V1200.5H240.5V1259.5ZM300.5 1259.5H359.5V1200.5H300.5V1259.5ZM360.5 1259.5H419.5V1200.5H360.5V1259.5ZM420.5 1259.5H479.5V1200.5H420.5V1259.5ZM480.5 1259.5H539.5V1200.5H480.5V1259.5ZM540.5 1259.5H599.5V1200.5H540.5V1259.5ZM600.5 1259.5H659.5V1200.5H600.5V1259.5ZM660.5 1259.5H719.5V1200.5H660.5V1259.5ZM720.5 1259.5H779.5V1200.5H720.5V1259.5ZM780.5 1259.5H839.5V1200.5H780.5V1259.5ZM840.5 1259.5H899.5V1200.5H840.5V1259.5ZM900.5 1259.5H959.5V1200.5H900.5V1259.5ZM960.5 1259.5H1019.5V1200.5H960.5V1259.5ZM1020.5 1259.5H1079.5V1200.5H1020.5V1259.5ZM1080.5 1259.5H1139.5V1200.5H1080.5V1259.5ZM1140.5 1259.5H1199.5V1200.5H1140.5V1259.5ZM1200.5 1259.5H1259.5V1200.5H1200.5V1259.5ZM1260.5 1259.5H1319.5V1200.5H1260.5V1259.5ZM1320.5 1259.5H1379.5V1200.5H1320.5V1259.5ZM1380.5 1259.5H1439.5V1200.5H1380.5V1259.5ZM1440.5 1259.5H1499.5V1200.5H1440.5V1259.5ZM1500.5 1259.5H1559.5V1200.5H1500.5V1259.5ZM1560.5 1259.5H1619.5V1200.5H1560.5V1259.5ZM1620.5 1259.5H1679.5V1200.5H1620.5V1259.5ZM1680.5 1259.5H1739.5V1200.5H1680.5V1259.5ZM1740.5 1259.5H1799.5V1200.5H1740.5V1259.5ZM1800.5 1259.5H1859.5V1200.5H1800.5V1259.5ZM60.5 1199.5H119.5V1140.5H60.5V1199.5ZM120.5 1199.5H179.5V1140.5H120.5V1199.5ZM180.5 1199.5H239.5V1140.5H180.5V1199.5ZM240.5 1199.5H299.5V1140.5H240.5V1199.5ZM300.5 1199.5H359.5V1140.5H300.5V1199.5ZM360.5 1199.5H419.5V1140.5H360.5V1199.5ZM420.5 1199.5H479.5V1140.5H420.5V1199.5ZM480.5 1199.5H539.5V1140.5H480.5V1199.5ZM540.5 1199.5H599.5V1140.5H540.5V1199.5ZM600.5 1199.5H659.5V1140.5H600.5V1199.5ZM660.5 1199.5H719.5V1140.5H660.5V1199.5ZM720.5 1199.5H779.5V1140.5H720.5V1199.5ZM780.5 1199.5H839.5V1140.5H780.5V1199.5ZM840.5 1199.5H899.5V1140.5H840.5V1199.5ZM900.5 1199.5H959.5V1140.5H900.5V1199.5ZM960.5 1199.5H1019.5V1140.5H960.5V1199.5ZM1020.5 1199.5H1079.5V1140.5H1020.5V1199.5ZM1080.5 1199.5H1139.5V1140.5H1080.5V1199.5ZM1140.5 1199.5H1199.5V1140.5H1140.5V1199.5ZM1200.5 1199.5H1259.5V1140.5H1200.5V1199.5ZM1260.5 1199.5H1319.5V1140.5H1260.5V1199.5ZM1320.5 1199.5H1379.5V1140.5H1320.5V1199.5ZM1380.5 1199.5H1439.5V1140.5H1380.5V1199.5ZM1440.5 1199.5H1499.5V1140.5H1440.5V1199.5ZM1500.5 1199.5H1559.5V1140.5H1500.5V1199.5ZM1560.5 1199.5H1619.5V1140.5H1560.5V1199.5ZM1620.5 1199.5H1679.5V1140.5H1620.5V1199.5ZM1680.5 1199.5H1739.5V1140.5H1680.5V1199.5ZM1740.5 1199.5H1799.5V1140.5H1740.5V1199.5ZM1800.5 1199.5H1859.5V1140.5H1800.5V1199.5ZM60.5 1139.5H119.5V1080.5H60.5V1139.5ZM120.5 1139.5H179.5V1080.5H120.5V1139.5ZM180.5 1139.5H239.5V1080.5H180.5V1139.5ZM240.5 1139.5H299.5V1080.5H240.5V1139.5ZM300.5 1139.5H359.5V1080.5H300.5V1139.5ZM360.5 1139.5H419.5V1080.5H360.5V1139.5ZM420.5 1139.5H479.5V1080.5H420.5V1139.5ZM480.5 1139.5H539.5V1080.5H480.5V1139.5ZM540.5 1139.5H599.5V1080.5H540.5V1139.5ZM600.5 1139.5H659.5V1080.5H600.5V1139.5ZM660.5 1139.5H719.5V1080.5H660.5V1139.5ZM720.5 1139.5H779.5V1080.5H720.5V1139.5ZM780.5 1139.5H839.5V1080.5H780.5V1139.5ZM840.5 1139.5H899.5V1080.5H840.5V1139.5ZM900.5 1139.5H959.5V1080.5H900.5V1139.5ZM960.5 1139.5H1019.5V1080.5H960.5V1139.5ZM1020.5 1139.5H1079.5V1080.5H1020.5V1139.5ZM1080.5 1139.5H1139.5V1080.5H1080.5V1139.5ZM1140.5 1139.5H1199.5V1080.5H1140.5V1139.5ZM1200.5 1139.5H1259.5V1080.5H1200.5V1139.5ZM1260.5 1139.5H1319.5V1080.5H1260.5V1139.5ZM1320.5 1139.5H1379.5V1080.5H1320.5V1139.5ZM1380.5 1139.5H1439.5V1080.5H1380.5V1139.5ZM1440.5 1139.5H1499.5V1080.5H1440.5V1139.5ZM1500.5 1139.5H1559.5V1080.5H1500.5V1139.5ZM1560.5 1139.5H1619.5V1080.5H1560.5V1139.5ZM1620.5 1139.5H1679.5V1080.5H1620.5V1139.5ZM1680.5 1139.5H1739.5V1080.5H1680.5V1139.5ZM1740.5 1139.5H1799.5V1080.5H1740.5V1139.5ZM1800.5 1139.5H1859.5V1080.5H1800.5V1139.5ZM60.5 1079.5H119.5V1020.5H60.5V1079.5ZM120.5 1079.5H179.5V1020.5H120.5V1079.5ZM180.5 1079.5H239.5V1020.5H180.5V1079.5ZM240.5 1079.5H299.5V1020.5H240.5V1079.5ZM300.5 1079.5H359.5V1020.5H300.5V1079.5ZM360.5 1079.5H419.5V1020.5H360.5V1079.5ZM420.5 1079.5H479.5V1020.5H420.5V1079.5ZM480.5 1079.5H539.5V1020.5H480.5V1079.5ZM540.5 1079.5H599.5V1020.5H540.5V1079.5ZM600.5 1079.5H659.5V1020.5H600.5V1079.5ZM660.5 1079.5H719.5V1020.5H660.5V1079.5ZM720.5 1079.5H779.5V1020.5H720.5V1079.5ZM780.5 1079.5H839.5V1020.5H780.5V1079.5ZM840.5 1079.5H899.5V1020.5H840.5V1079.5ZM900.5 1079.5H959.5V1020.5H900.5V1079.5ZM960.5 1079.5H1019.5V1020.5H960.5V1079.5ZM1020.5 1079.5H1079.5V1020.5H1020.5V1079.5ZM1080.5 1079.5H1139.5V1020.5H1080.5V1079.5ZM1140.5 1079.5H1199.5V1020.5H1140.5V1079.5ZM1200.5 1079.5H1259.5V1020.5H1200.5V1079.5ZM1260.5 1079.5H1319.5V1020.5H1260.5V1079.5ZM1320.5 1079.5H1379.5V1020.5H1320.5V1079.5ZM1380.5 1079.5H1439.5V1020.5H1380.5V1079.5ZM1440.5 1079.5H1499.5V1020.5H1440.5V1079.5ZM1500.5 1079.5H1559.5V1020.5H1500.5V1079.5ZM1560.5 1079.5H1619.5V1020.5H1560.5V1079.5ZM1620.5 1079.5H1679.5V1020.5H1620.5V1079.5ZM1680.5 1079.5H1739.5V1020.5H1680.5V1079.5ZM1740.5 1079.5H1799.5V1020.5H1740.5V1079.5ZM1800.5 1079.5H1859.5V1020.5H1800.5V1079.5ZM60.5 1019.5H119.5V960.5H60.5V1019.5ZM120.5 1019.5H179.5V960.5H120.5V1019.5ZM180.5 1019.5H239.5V960.5H180.5V1019.5ZM240.5 1019.5H299.5V960.5H240.5V1019.5ZM300.5 1019.5H359.5V960.5H300.5V1019.5ZM360.5 1019.5H419.5V960.5H360.5V1019.5ZM420.5 1019.5H479.5V960.5H420.5V1019.5ZM480.5 1019.5H539.5V960.5H480.5V1019.5ZM540.5 1019.5H599.5V960.5H540.5V1019.5ZM600.5 1019.5H659.5V960.5H600.5V1019.5ZM660.5 1019.5H719.5V960.5H660.5V1019.5ZM720.5 1019.5H779.5V960.5H720.5V1019.5ZM780.5 1019.5H839.5V960.5H780.5V1019.5ZM840.5 1019.5H899.5V960.5H840.5V1019.5ZM900.5 1019.5H959.5V960.5H900.5V1019.5ZM960.5 1019.5H1019.5V960.5H960.5V1019.5ZM1020.5 1019.5H1079.5V960.5H1020.5V1019.5ZM1080.5 1019.5H1139.5V960.5H1080.5V1019.5ZM1140.5 1019.5H1199.5V960.5H1140.5V1019.5ZM1200.5 1019.5H1259.5V960.5H1200.5V1019.5ZM1260.5 1019.5H1319.5V960.5H1260.5V1019.5ZM1320.5 1019.5H1379.5V960.5H1320.5V1019.5ZM1380.5 1019.5H1439.5V960.5H1380.5V1019.5ZM1440.5 1019.5H1499.5V960.5H1440.5V1019.5ZM1500.5 1019.5H1559.5V960.5H1500.5V1019.5ZM1560.5 1019.5H1619.5V960.5H1560.5V1019.5ZM1620.5 1019.5H1679.5V960.5H1620.5V1019.5ZM1680.5 1019.5H1739.5V960.5H1680.5V1019.5ZM1740.5 1019.5H1799.5V960.5H1740.5V1019.5ZM1800.5 1019.5H1859.5V960.5H1800.5V1019.5ZM60.5 959.5H119.5V900.5H60.5V959.5ZM120.5 959.5H179.5V900.5H120.5V959.5ZM180.5 959.5H239.5V900.5H180.5V959.5ZM240.5 959.5H299.5V900.5H240.5V959.5ZM300.5 959.5H359.5V900.5H300.5V959.5ZM360.5 959.5H419.5V900.5H360.5V959.5ZM420.5 959.5H479.5V900.5H420.5V959.5ZM480.5 959.5H539.5V900.5H480.5V959.5ZM540.5 959.5H599.5V900.5H540.5V959.5ZM600.5 959.5H659.5V900.5H600.5V959.5ZM660.5 959.5H719.5V900.5H660.5V959.5ZM720.5 959.5H779.5V900.5H720.5V959.5ZM780.5 959.5H839.5V900.5H780.5V959.5ZM840.5 959.5H899.5V900.5H840.5V959.5ZM900.5 959.5H959.5V900.5H900.5V959.5ZM960.5 959.5H1019.5V900.5H960.5V959.5ZM1020.5 959.5H1079.5V900.5H1020.5V959.5ZM1080.5 959.5H1139.5V900.5H1080.5V959.5ZM1140.5 959.5H1199.5V900.5H1140.5V959.5ZM1200.5 959.5H1259.5V900.5H1200.5V959.5ZM1260.5 959.5H1319.5V900.5H1260.5V959.5ZM1320.5 959.5H1379.5V900.5H1320.5V959.5ZM1380.5 959.5H1439.5V900.5H1380.5V959.5ZM1440.5 959.5H1499.5V900.5H1440.5V959.5ZM1500.5 959.5H1559.5V900.5H1500.5V959.5ZM1560.5 959.5H1619.5V900.5H1560.5V959.5ZM1620.5 959.5H1679.5V900.5H1620.5V959.5ZM1680.5 959.5H1739.5V900.5H1680.5V959.5ZM1740.5 959.5H1799.5V900.5H1740.5V959.5ZM1800.5 959.5H1859.5V900.5H1800.5V959.5ZM60.5 899.5H119.5V840.5H60.5V899.5ZM120.5 899.5H179.5V840.5H120.5V899.5ZM180.5 899.5H239.5V840.5H180.5V899.5ZM240.5 899.5H299.5V840.5H240.5V899.5ZM300.5 899.5H359.5V840.5H300.5V899.5ZM360.5 899.5H419.5V840.5H360.5V899.5ZM420.5 899.5H479.5V840.5H420.5V899.5ZM480.5 899.5H539.5V840.5H480.5V899.5ZM540.5 899.5H599.5V840.5H540.5V899.5ZM600.5 899.5H659.5V840.5H600.5V899.5ZM660.5 899.5H719.5V840.5H660.5V899.5ZM720.5 899.5H779.5V840.5H720.5V899.5ZM780.5 899.5H839.5V840.5H780.5V899.5ZM840.5 899.5H899.5V840.5H840.5V899.5ZM900.5 899.5H959.5V840.5H900.5V899.5ZM960.5 899.5H1019.5V840.5H960.5V899.5ZM1020.5 899.5H1079.5V840.5H1020.5V899.5ZM1080.5 899.5H1139.5V840.5H1080.5V899.5ZM1140.5 899.5H1199.5V840.5H1140.5V899.5ZM1200.5 899.5H1259.5V840.5H1200.5V899.5ZM1260.5 899.5H1319.5V840.5H1260.5V899.5ZM1320.5 899.5H1379.5V840.5H1320.5V899.5ZM1380.5 899.5H1439.5V840.5H1380.5V899.5ZM1440.5 899.5H1499.5V840.5H1440.5V899.5ZM1500.5 899.5H1559.5V840.5H1500.5V899.5ZM1560.5 899.5H1619.5V840.5H1560.5V899.5ZM1620.5 899.5H1679.5V840.5H1620.5V899.5ZM1680.5 899.5H1739.5V840.5H1680.5V899.5ZM1740.5 899.5H1799.5V840.5H1740.5V899.5ZM1800.5 899.5H1859.5V840.5H1800.5V899.5ZM60.5 839.5H119.5V780.5H60.5V839.5ZM120.5 839.5H179.5V780.5H120.5V839.5ZM180.5 839.5H239.5V780.5H180.5V839.5ZM240.5 839.5H299.5V780.5H240.5V839.5ZM300.5 839.5H359.5V780.5H300.5V839.5ZM360.5 839.5H419.5V780.5H360.5V839.5ZM420.5 839.5H479.5V780.5H420.5V839.5ZM480.5 839.5H539.5V780.5H480.5V839.5ZM540.5 839.5H599.5V780.5H540.5V839.5ZM600.5 839.5H659.5V780.5H600.5V839.5ZM660.5 839.5H719.5V780.5H660.5V839.5ZM720.5 839.5H779.5V780.5H720.5V839.5ZM780.5 839.5H839.5V780.5H780.5V839.5ZM840.5 839.5H899.5V780.5H840.5V839.5ZM900.5 839.5H959.5V780.5H900.5V839.5ZM960.5 839.5H1019.5V780.5H960.5V839.5ZM1020.5 839.5H1079.5V780.5H1020.5V839.5ZM1080.5 839.5H1139.5V780.5H1080.5V839.5ZM1140.5 839.5H1199.5V780.5H1140.5V839.5ZM1200.5 839.5H1259.5V780.5H1200.5V839.5ZM1260.5 839.5H1319.5V780.5H1260.5V839.5ZM1320.5 839.5H1379.5V780.5H1320.5V839.5ZM1380.5 839.5H1439.5V780.5H1380.5V839.5ZM1440.5 839.5H1499.5V780.5H1440.5V839.5ZM1500.5 839.5H1559.5V780.5H1500.5V839.5ZM1560.5 839.5H1619.5V780.5H1560.5V839.5ZM1620.5 839.5H1679.5V780.5H1620.5V839.5ZM1680.5 839.5H1739.5V780.5H1680.5V839.5ZM1740.5 839.5H1799.5V780.5H1740.5V839.5ZM1800.5 839.5H1859.5V780.5H1800.5V839.5ZM60.5 779.5H119.5V720.5H60.5V779.5ZM120.5 779.5H179.5V720.5H120.5V779.5ZM180.5 779.5H239.5V720.5H180.5V779.5ZM240.5 779.5H299.5V720.5H240.5V779.5ZM300.5 779.5H359.5V720.5H300.5V779.5ZM360.5 779.5H419.5V720.5H360.5V779.5ZM420.5 779.5H479.5V720.5H420.5V779.5ZM480.5 779.5H539.5V720.5H480.5V779.5ZM540.5 779.5H599.5V720.5H540.5V779.5ZM600.5 779.5H659.5V720.5H600.5V779.5ZM660.5 779.5H719.5V720.5H660.5V779.5ZM720.5 779.5H779.5V720.5H720.5V779.5ZM780.5 779.5H839.5V720.5H780.5V779.5ZM840.5 779.5H899.5V720.5H840.5V779.5ZM900.5 779.5H959.5V720.5H900.5V779.5ZM960.5 779.5H1019.5V720.5H960.5V779.5ZM1020.5 779.5H1079.5V720.5H1020.5V779.5ZM1080.5 779.5H1139.5V720.5H1080.5V779.5ZM1140.5 779.5H1199.5V720.5H1140.5V779.5ZM1200.5 779.5H1259.5V720.5H1200.5V779.5ZM1260.5 779.5H1319.5V720.5H1260.5V779.5ZM1320.5 779.5H1379.5V720.5H1320.5V779.5ZM1380.5 779.5H1439.5V720.5H1380.5V779.5ZM1440.5 779.5H1499.5V720.5H1440.5V779.5ZM1500.5 779.5H1559.5V720.5H1500.5V779.5ZM1560.5 779.5H1619.5V720.5H1560.5V779.5ZM1620.5 779.5H1679.5V720.5H1620.5V779.5ZM1680.5 779.5H1739.5V720.5H1680.5V779.5ZM1740.5 779.5H1799.5V720.5H1740.5V779.5ZM1800.5 779.5H1859.5V720.5H1800.5V779.5ZM60.5 719.5H119.5V660.5H60.5V719.5ZM120.5 719.5H179.5V660.5H120.5V719.5ZM180.5 719.5H239.5V660.5H180.5V719.5ZM240.5 719.5H299.5V660.5H240.5V719.5ZM300.5 719.5H359.5V660.5H300.5V719.5ZM360.5 719.5H419.5V660.5H360.5V719.5ZM420.5 719.5H479.5V660.5H420.5V719.5ZM480.5 719.5H539.5V660.5H480.5V719.5ZM540.5 719.5H599.5V660.5H540.5V719.5ZM600.5 719.5H659.5V660.5H600.5V719.5ZM660.5 719.5H719.5V660.5H660.5V719.5ZM720.5 719.5H779.5V660.5H720.5V719.5ZM780.5 719.5H839.5V660.5H780.5V719.5ZM840.5 719.5H899.5V660.5H840.5V719.5ZM900.5 719.5H959.5V660.5H900.5V719.5ZM960.5 719.5H1019.5V660.5H960.5V719.5ZM1020.5 719.5H1079.5V660.5H1020.5V719.5ZM1080.5 719.5H1139.5V660.5H1080.5V719.5ZM1140.5 719.5H1199.5V660.5H1140.5V719.5ZM1200.5 719.5H1259.5V660.5H1200.5V719.5ZM1260.5 719.5H1319.5V660.5H1260.5V719.5ZM1320.5 719.5H1379.5V660.5H1320.5V719.5ZM1380.5 719.5H1439.5V660.5H1380.5V719.5ZM1440.5 719.5H1499.5V660.5H1440.5V719.5ZM1500.5 719.5H1559.5V660.5H1500.5V719.5ZM1560.5 719.5H1619.5V660.5H1560.5V719.5ZM1620.5 719.5H1679.5V660.5H1620.5V719.5ZM1680.5 719.5H1739.5V660.5H1680.5V719.5ZM1740.5 719.5H1799.5V660.5H1740.5V719.5ZM1800.5 719.5H1859.5V660.5H1800.5V719.5ZM60.5 659.5H119.5V600.5H60.5V659.5ZM120.5 659.5H179.5V600.5H120.5V659.5ZM180.5 659.5H239.5V600.5H180.5V659.5ZM240.5 659.5H299.5V600.5H240.5V659.5ZM300.5 659.5H359.5V600.5H300.5V659.5ZM360.5 659.5H419.5V600.5H360.5V659.5ZM420.5 659.5H479.5V600.5H420.5V659.5ZM480.5 659.5H539.5V600.5H480.5V659.5ZM540.5 659.5H599.5V600.5H540.5V659.5ZM600.5 659.5H659.5V600.5H600.5V659.5ZM660.5 659.5H719.5V600.5H660.5V659.5ZM720.5 659.5H779.5V600.5H720.5V659.5ZM780.5 659.5H839.5V600.5H780.5V659.5ZM840.5 659.5H899.5V600.5H840.5V659.5ZM900.5 659.5H959.5V600.5H900.5V659.5ZM960.5 659.5H1019.5V600.5H960.5V659.5ZM1020.5 659.5H1079.5V600.5H1020.5V659.5ZM1080.5 659.5H1139.5V600.5H1080.5V659.5ZM1140.5 659.5H1199.5V600.5H1140.5V659.5ZM1200.5 659.5H1259.5V600.5H1200.5V659.5ZM1260.5 659.5H1319.5V600.5H1260.5V659.5ZM1320.5 659.5H1379.5V600.5H1320.5V659.5ZM1380.5 659.5H1439.5V600.5H1380.5V659.5ZM1440.5 659.5H1499.5V600.5H1440.5V659.5ZM1500.5 659.5H1559.5V600.5H1500.5V659.5ZM1560.5 659.5H1619.5V600.5H1560.5V659.5ZM1620.5 659.5H1679.5V600.5H1620.5V659.5ZM1680.5 659.5H1739.5V600.5H1680.5V659.5ZM1740.5 659.5H1799.5V600.5H1740.5V659.5ZM1800.5 659.5H1859.5V600.5H1800.5V659.5ZM60.5 599.5H119.5V540.5H60.5V599.5ZM120.5 599.5H179.5V540.5H120.5V599.5ZM180.5 599.5H239.5V540.5H180.5V599.5ZM240.5 599.5H299.5V540.5H240.5V599.5ZM300.5 599.5H359.5V540.5H300.5V599.5ZM360.5 599.5H419.5V540.5H360.5V599.5ZM420.5 599.5H479.5V540.5H420.5V599.5ZM480.5 599.5H539.5V540.5H480.5V599.5ZM540.5 599.5H599.5V540.5H540.5V599.5ZM600.5 599.5H659.5V540.5H600.5V599.5ZM660.5 599.5H719.5V540.5H660.5V599.5ZM720.5 599.5H779.5V540.5H720.5V599.5ZM780.5 599.5H839.5V540.5H780.5V599.5ZM840.5 599.5H899.5V540.5H840.5V599.5ZM900.5 599.5H959.5V540.5H900.5V599.5ZM960.5 599.5H1019.5V540.5H960.5V599.5ZM1020.5 599.5H1079.5V540.5H1020.5V599.5ZM1080.5 599.5H1139.5V540.5H1080.5V599.5ZM1140.5 599.5H1199.5V540.5H1140.5V599.5ZM1200.5 599.5H1259.5V540.5H1200.5V599.5ZM1260.5 599.5H1319.5V540.5H1260.5V599.5ZM1320.5 599.5H1379.5V540.5H1320.5V599.5ZM1380.5 599.5H1439.5V540.5H1380.5V599.5ZM1440.5 599.5H1499.5V540.5H1440.5V599.5ZM1500.5 599.5H1559.5V540.5H1500.5V599.5ZM1560.5 599.5H1619.5V540.5H1560.5V599.5ZM1620.5 599.5H1679.5V540.5H1620.5V599.5ZM1680.5 599.5H1739.5V540.5H1680.5V599.5ZM1740.5 599.5H1799.5V540.5H1740.5V599.5ZM1800.5 599.5H1859.5V540.5H1800.5V599.5ZM60.5 539.5H119.5V480.5H60.5V539.5ZM120.5 539.5H179.5V480.5H120.5V539.5ZM180.5 539.5H239.5V480.5H180.5V539.5ZM240.5 539.5H299.5V480.5H240.5V539.5ZM300.5 539.5H359.5V480.5H300.5V539.5ZM360.5 539.5H419.5V480.5H360.5V539.5ZM420.5 539.5H479.5V480.5H420.5V539.5ZM480.5 539.5H539.5V480.5H480.5V539.5ZM540.5 539.5H599.5V480.5H540.5V539.5ZM600.5 539.5H659.5V480.5H600.5V539.5ZM660.5 539.5H719.5V480.5H660.5V539.5ZM720.5 539.5H779.5V480.5H720.5V539.5ZM780.5 539.5H839.5V480.5H780.5V539.5ZM840.5 539.5H899.5V480.5H840.5V539.5ZM900.5 539.5H959.5V480.5H900.5V539.5ZM960.5 539.5H1019.5V480.5H960.5V539.5ZM1020.5 539.5H1079.5V480.5H1020.5V539.5ZM1080.5 539.5H1139.5V480.5H1080.5V539.5ZM1140.5 539.5H1199.5V480.5H1140.5V539.5ZM1200.5 539.5H1259.5V480.5H1200.5V539.5ZM1260.5 539.5H1319.5V480.5H1260.5V539.5ZM1320.5 539.5H1379.5V480.5H1320.5V539.5ZM1380.5 539.5H1439.5V480.5H1380.5V539.5ZM1440.5 539.5H1499.5V480.5H1440.5V539.5ZM1500.5 539.5H1559.5V480.5H1500.5V539.5ZM1560.5 539.5H1619.5V480.5H1560.5V539.5ZM1620.5 539.5H1679.5V480.5H1620.5V539.5ZM1680.5 539.5H1739.5V480.5H1680.5V539.5ZM1740.5 539.5H1799.5V480.5H1740.5V539.5ZM1800.5 539.5H1859.5V480.5H1800.5V539.5ZM60.5 479.5H119.5V420.5H60.5V479.5ZM120.5 479.5H179.5V420.5H120.5V479.5ZM180.5 479.5H239.5V420.5H180.5V479.5ZM240.5 479.5H299.5V420.5H240.5V479.5ZM300.5 479.5H359.5V420.5H300.5V479.5ZM360.5 479.5H419.5V420.5H360.5V479.5ZM420.5 479.5H479.5V420.5H420.5V479.5ZM480.5 479.5H539.5V420.5H480.5V479.5ZM540.5 479.5H599.5V420.5H540.5V479.5ZM600.5 479.5H659.5V420.5H600.5V479.5ZM660.5 479.5H719.5V420.5H660.5V479.5ZM720.5 479.5H779.5V420.5H720.5V479.5ZM780.5 479.5H839.5V420.5H780.5V479.5ZM840.5 479.5H899.5V420.5H840.5V479.5ZM900.5 479.5H959.5V420.5H900.5V479.5ZM960.5 479.5H1019.5V420.5H960.5V479.5ZM1020.5 479.5H1079.5V420.5H1020.5V479.5ZM1080.5 479.5H1139.5V420.5H1080.5V479.5ZM1140.5 479.5H1199.5V420.5H1140.5V479.5ZM1200.5 479.5H1259.5V420.5H1200.5V479.5ZM1260.5 479.5H1319.5V420.5H1260.5V479.5ZM1320.5 479.5H1379.5V420.5H1320.5V479.5ZM1380.5 479.5H1439.5V420.5H1380.5V479.5ZM1440.5 479.5H1499.5V420.5H1440.5V479.5ZM1500.5 479.5H1559.5V420.5H1500.5V479.5ZM1560.5 479.5H1619.5V420.5H1560.5V479.5ZM1620.5 479.5H1679.5V420.5H1620.5V479.5ZM1680.5 479.5H1739.5V420.5H1680.5V479.5ZM1740.5 479.5H1799.5V420.5H1740.5V479.5ZM1800.5 479.5H1859.5V420.5H1800.5V479.5ZM60.5 419.5H119.5V360.5H60.5V419.5ZM120.5 419.5H179.5V360.5H120.5V419.5ZM180.5 419.5H239.5V360.5H180.5V419.5ZM240.5 419.5H299.5V360.5H240.5V419.5ZM300.5 419.5H359.5V360.5H300.5V419.5ZM360.5 419.5H419.5V360.5H360.5V419.5ZM420.5 419.5H479.5V360.5H420.5V419.5ZM480.5 419.5H539.5V360.5H480.5V419.5ZM540.5 419.5H599.5V360.5H540.5V419.5ZM600.5 419.5H659.5V360.5H600.5V419.5ZM660.5 419.5H719.5V360.5H660.5V419.5ZM720.5 419.5H779.5V360.5H720.5V419.5ZM780.5 419.5H839.5V360.5H780.5V419.5ZM840.5 419.5H899.5V360.5H840.5V419.5ZM900.5 419.5H959.5V360.5H900.5V419.5ZM960.5 419.5H1019.5V360.5H960.5V419.5ZM1020.5 419.5H1079.5V360.5H1020.5V419.5ZM1080.5 419.5H1139.5V360.5H1080.5V419.5ZM1140.5 419.5H1199.5V360.5H1140.5V419.5ZM1200.5 419.5H1259.5V360.5H1200.5V419.5ZM1260.5 419.5H1319.5V360.5H1260.5V419.5ZM1320.5 419.5H1379.5V360.5H1320.5V419.5ZM1380.5 419.5H1439.5V360.5H1380.5V419.5ZM1440.5 419.5H1499.5V360.5H1440.5V419.5ZM1500.5 419.5H1559.5V360.5H1500.5V419.5ZM1560.5 419.5H1619.5V360.5H1560.5V419.5ZM1620.5 419.5H1679.5V360.5H1620.5V419.5ZM1680.5 419.5H1739.5V360.5H1680.5V419.5ZM1740.5 419.5H1799.5V360.5H1740.5V419.5ZM1800.5 419.5H1859.5V360.5H1800.5V419.5ZM60.5 359.5H119.5V300.5H60.5V359.5ZM120.5 359.5H179.5V300.5H120.5V359.5ZM180.5 359.5H239.5V300.5H180.5V359.5ZM240.5 359.5H299.5V300.5H240.5V359.5ZM300.5 359.5H359.5V300.5H300.5V359.5ZM360.5 359.5H419.5V300.5H360.5V359.5ZM420.5 359.5H479.5V300.5H420.5V359.5ZM480.5 359.5H539.5V300.5H480.5V359.5ZM540.5 359.5H599.5V300.5H540.5V359.5ZM600.5 359.5H659.5V300.5H600.5V359.5ZM660.5 359.5H719.5V300.5H660.5V359.5ZM720.5 359.5H779.5V300.5H720.5V359.5ZM780.5 359.5H839.5V300.5H780.5V359.5ZM840.5 359.5H899.5V300.5H840.5V359.5ZM900.5 359.5H959.5V300.5H900.5V359.5ZM960.5 359.5H1019.5V300.5H960.5V359.5ZM1020.5 359.5H1079.5V300.5H1020.5V359.5ZM1080.5 359.5H1139.5V300.5H1080.5V359.5ZM1140.5 359.5H1199.5V300.5H1140.5V359.5ZM1200.5 359.5H1259.5V300.5H1200.5V359.5ZM1260.5 359.5H1319.5V300.5H1260.5V359.5ZM1320.5 359.5H1379.5V300.5H1320.5V359.5ZM1380.5 359.5H1439.5V300.5H1380.5V359.5ZM1440.5 359.5H1499.5V300.5H1440.5V359.5ZM1500.5 359.5H1559.5V300.5H1500.5V359.5ZM1560.5 359.5H1619.5V300.5H1560.5V359.5ZM1620.5 359.5H1679.5V300.5H1620.5V359.5ZM1680.5 359.5H1739.5V300.5H1680.5V359.5ZM1740.5 359.5H1799.5V300.5H1740.5V359.5ZM1800.5 359.5H1859.5V300.5H1800.5V359.5ZM60.5 299.5H119.5V240.5H60.5V299.5ZM120.5 299.5H179.5V240.5H120.5V299.5ZM180.5 299.5H239.5V240.5H180.5V299.5ZM240.5 299.5H299.5V240.5H240.5V299.5ZM300.5 299.5H359.5V240.5H300.5V299.5ZM360.5 299.5H419.5V240.5H360.5V299.5ZM420.5 299.5H479.5V240.5H420.5V299.5ZM480.5 299.5H539.5V240.5H480.5V299.5ZM540.5 299.5H599.5V240.5H540.5V299.5ZM600.5 299.5H659.5V240.5H600.5V299.5ZM660.5 299.5H719.5V240.5H660.5V299.5ZM720.5 299.5H779.5V240.5H720.5V299.5ZM780.5 299.5H839.5V240.5H780.5V299.5ZM840.5 299.5H899.5V240.5H840.5V299.5ZM900.5 299.5H959.5V240.5H900.5V299.5ZM960.5 299.5H1019.5V240.5H960.5V299.5ZM1020.5 299.5H1079.5V240.5H1020.5V299.5ZM1080.5 299.5H1139.5V240.5H1080.5V299.5ZM1140.5 299.5H1199.5V240.5H1140.5V299.5ZM1200.5 299.5H1259.5V240.5H1200.5V299.5ZM1260.5 299.5H1319.5V240.5H1260.5V299.5ZM1320.5 299.5H1379.5V240.5H1320.5V299.5ZM1380.5 299.5H1439.5V240.5H1380.5V299.5ZM1440.5 299.5H1499.5V240.5H1440.5V299.5ZM1500.5 299.5H1559.5V240.5H1500.5V299.5ZM1560.5 299.5H1619.5V240.5H1560.5V299.5ZM1620.5 299.5H1679.5V240.5H1620.5V299.5ZM1680.5 299.5H1739.5V240.5H1680.5V299.5ZM1740.5 299.5H1799.5V240.5H1740.5V299.5ZM1800.5 299.5H1859.5V240.5H1800.5V299.5ZM60.5 239.5H119.5V180.5H60.5V239.5ZM120.5 239.5H179.5V180.5H120.5V239.5ZM180.5 239.5H239.5V180.5H180.5V239.5ZM240.5 239.5H299.5V180.5H240.5V239.5ZM300.5 239.5H359.5V180.5H300.5V239.5ZM360.5 239.5H419.5V180.5H360.5V239.5ZM420.5 239.5H479.5V180.5H420.5V239.5ZM480.5 239.5H539.5V180.5H480.5V239.5ZM540.5 239.5H599.5V180.5H540.5V239.5ZM600.5 239.5H659.5V180.5H600.5V239.5ZM660.5 239.5H719.5V180.5H660.5V239.5ZM720.5 239.5H779.5V180.5H720.5V239.5ZM780.5 239.5H839.5V180.5H780.5V239.5ZM840.5 239.5H899.5V180.5H840.5V239.5ZM900.5 239.5H959.5V180.5H900.5V239.5ZM960.5 239.5H1019.5V180.5H960.5V239.5ZM1020.5 239.5H1079.5V180.5H1020.5V239.5ZM1080.5 239.5H1139.5V180.5H1080.5V239.5ZM1140.5 239.5H1199.5V180.5H1140.5V239.5ZM1200.5 239.5H1259.5V180.5H1200.5V239.5ZM1260.5 239.5H1319.5V180.5H1260.5V239.5ZM1320.5 239.5H1379.5V180.5H1320.5V239.5ZM1380.5 239.5H1439.5V180.5H1380.5V239.5ZM1440.5 239.5H1499.5V180.5H1440.5V239.5ZM1500.5 239.5H1559.5V180.5H1500.5V239.5ZM1560.5 239.5H1619.5V180.5H1560.5V239.5ZM1620.5 239.5H1679.5V180.5H1620.5V239.5ZM1680.5 239.5H1739.5V180.5H1680.5V239.5ZM1740.5 239.5H1799.5V180.5H1740.5V239.5ZM1800.5 239.5H1859.5V180.5H1800.5V239.5ZM60.5 179.5H119.5V120.5H60.5V179.5ZM120.5 179.5H179.5V120.5H120.5V179.5ZM180.5 179.5H239.5V120.5H180.5V179.5ZM240.5 179.5H299.5V120.5H240.5V179.5ZM300.5 179.5H359.5V120.5H300.5V179.5ZM360.5 179.5H419.5V120.5H360.5V179.5ZM420.5 179.5H479.5V120.5H420.5V179.5ZM480.5 179.5H539.5V120.5H480.5V179.5ZM540.5 179.5H599.5V120.5H540.5V179.5ZM600.5 179.5H659.5V120.5H600.5V179.5ZM660.5 179.5H719.5V120.5H660.5V179.5ZM720.5 179.5H779.5V120.5H720.5V179.5ZM780.5 179.5H839.5V120.5H780.5V179.5ZM840.5 179.5H899.5V120.5H840.5V179.5ZM900.5 179.5H959.5V120.5H900.5V179.5ZM960.5 179.5H1019.5V120.5H960.5V179.5ZM1020.5 179.5H1079.5V120.5H1020.5V179.5ZM1080.5 179.5H1139.5V120.5H1080.5V179.5ZM1140.5 179.5H1199.5V120.5H1140.5V179.5ZM1200.5 179.5H1259.5V120.5H1200.5V179.5ZM1260.5 179.5H1319.5V120.5H1260.5V179.5ZM1320.5 179.5H1379.5V120.5H1320.5V179.5ZM1380.5 179.5H1439.5V120.5H1380.5V179.5ZM1440.5 179.5H1499.5V120.5H1440.5V179.5ZM1500.5 179.5H1559.5V120.5H1500.5V179.5ZM1560.5 179.5H1619.5V120.5H1560.5V179.5ZM1620.5 179.5H1679.5V120.5H1620.5V179.5ZM1680.5 179.5H1739.5V120.5H1680.5V179.5ZM1740.5 179.5H1799.5V120.5H1740.5V179.5ZM1800.5 179.5H1859.5V120.5H1800.5V179.5ZM60.5 119.5H119.5V60.5H60.5V119.5ZM120.5 119.5H179.5V60.5H120.5V119.5ZM180.5 119.5H239.5V60.5H180.5V119.5ZM240.5 119.5H299.5V60.5H240.5V119.5ZM300.5 119.5H359.5V60.5H300.5V119.5ZM360.5 119.5H419.5V60.5H360.5V119.5ZM420.5 119.5H479.5V60.5H420.5V119.5ZM480.5 119.5H539.5V60.5H480.5V119.5ZM540.5 119.5H599.5V60.5H540.5V119.5ZM600.5 119.5H659.5V60.5H600.5V119.5ZM660.5 119.5H719.5V60.5H660.5V119.5ZM720.5 119.5H779.5V60.5H720.5V119.5ZM780.5 119.5H839.5V60.5H780.5V119.5ZM840.5 119.5H899.5V60.5H840.5V119.5ZM900.5 119.5H959.5V60.5H900.5V119.5ZM960.5 119.5H1019.5V60.5H960.5V119.5ZM1020.5 119.5H1079.5V60.5H1020.5V119.5ZM1080.5 119.5H1139.5V60.5H1080.5V119.5ZM1140.5 119.5H1199.5V60.5H1140.5V119.5ZM1200.5 119.5H1259.5V60.5H1200.5V119.5ZM1260.5 119.5H1319.5V60.5H1260.5V119.5ZM1320.5 119.5H1379.5V60.5H1320.5V119.5ZM1380.5 119.5H1439.5V60.5H1380.5V119.5ZM1440.5 119.5H1499.5V60.5H1440.5V119.5ZM1500.5 119.5H1559.5V60.5H1500.5V119.5ZM1560.5 119.5H1619.5V60.5H1560.5V119.5ZM1620.5 119.5H1679.5V60.5H1620.5V119.5ZM1680.5 119.5H1739.5V60.5H1680.5V119.5ZM1740.5 119.5H1799.5V60.5H1740.5V119.5ZM1800.5 119.5H1859.5V60.5H1800.5V119.5Z" fill="url(#paint0_radial_11_88)"/>
</g>
<defs>
<radialGradient id="paint0_radial_11_88" cx="0" cy="0" r="1" gradientUnits="userSpaceOnUse" gradientTransform="translate(991.833 308.25) rotate(89.4578) scale(1231.81 1231.81)">
<stop stop-color="#18160F"/>
<stop offset="0.701923" stop-color="#18160F" stop-opacity="0.572115"/>
<stop offset="1" stop-color="#18160F" stop-opacity="0"/>
</radialGradient>
<clipPath id="clip0_11_88">
<rect width="1920" height="1440" fill="white"/>
</clipPath>
</defs>
</svg>
