<svg width="21" height="21" viewBox="0 0 21 21" fill="none" xmlns="http://www.w3.org/2000/svg">
<path d="M9.51891 3.85414C6.93548 5.50833 5.64376 7.50048 5.64376 9.83061C5.64376 10.5555 5.76998 10.918 6.02241 10.918L6.28229 10.8478C6.4866 10.769 6.65198 10.7297 6.77841 10.7297C7.51866 10.7297 8.13663 10.9987 8.63232 11.5369C9.12801 12.075 9.37607 12.7391 9.37651 13.5292C9.37607 14.2887 9.1081 14.9334 8.5726 15.4632C8.0371 15.9926 7.39135 16.2573 6.63535 16.2573C5.5801 16.2573 4.70948 15.8235 4.02348 14.9559C3.33923 14.0897 2.9971 13.001 2.9971 11.6898C2.99666 10.2066 3.2876 8.84973 3.86991 7.61905C4.45354 6.3888 5.34341 5.27645 6.53954 4.28202C7.73654 3.28845 8.50041 2.79145 8.83116 2.79102C9.05166 2.79102 9.23279 2.89733 9.37454 3.10995C9.51629 3.32214 9.58716 3.50698 9.58716 3.66448L9.51694 3.85348L9.51891 3.85414ZM18.0239 3.85414C15.4405 5.50789 14.149 7.50027 14.1494 9.83127C14.1494 10.5562 14.2756 10.9187 14.5281 10.9187L14.7879 10.8485C14.9923 10.7697 15.1576 10.7303 15.2841 10.7303C16.0086 10.7303 16.6226 10.9994 17.1262 11.5375C17.6306 12.0748 17.8826 12.7389 17.8822 13.5299C17.8817 14.2894 17.6138 14.934 17.0783 15.4639C16.5428 15.9932 15.897 16.2579 15.141 16.2579C14.0858 16.2579 13.2151 15.8241 12.5291 14.9566C11.8449 14.0903 11.5028 13.0016 11.5028 11.6904C11.5019 10.1915 11.7972 8.82305 12.3887 7.58492C12.9793 6.34636 13.869 5.23795 15.0577 4.2597C16.2485 3.28102 17.0087 2.79167 17.3381 2.79167C17.5591 2.79167 17.7406 2.89798 17.8828 3.11061C18.0241 3.32323 18.0948 3.5083 18.0948 3.6658L18.0239 3.85414Z" fill="#2B1D0A"/>
</svg>
